# AST/ASF file generated using VICON BodyLanguage
# -----------------------------------------------
:version 1.10
:name VICON
:units
  mass 1.0
  length 0.45
  angle deg
:documentation
   .ast/.asf automatically generated from VICON data using
   VICON BodyBuilder and BodyLanguage model FoxedUp or BRILLIANT.MOD
:root
   order TX TY TZ RX RY RZ
   axis XYZ
   position 0 0 0  
   orientation 0 0 0 
:bonedata
  begin
     id 1 
     name lhipjoint
     direction 0.692814 -0.645514 0.321437 
     length 2.38754 
     axis 0 0 0  XYZ
  end
  begin
     id 2 
     name lfemur
     direction 0.34202 -0.939693 0  
     length 6.41921  
     axis 0 0 20  XYZ
    dof rx ry rz
    limits (-160.0 20.0)
           (-70.0 70.0)
           (-60.0 70.0)
  end
  begin
     id 3 
     name ltibia
     direction 0.34202 -0.939693 0   
     length 6.98247   
     axis 0 0 20   XYZ
    dof rx
    limits (-10.0 170.0)
  end
  begin
     id 4 
     name lfoot
     direction 0.0947186 -0.260237 0.960888   
     length 1.83034   
     axis -90 7.62852e-016 20   XYZ
    dof rx rz
    limits (-45.0 90.0)
           (-70.0 20.0)
  end
  begin
     id 5 
     name ltoes
     direction 1.53538e-011 -4.21952e-011 1   
     length 0.920499   
     axis -90 7.62852e-016 20   XYZ
    dof rx
    limits (-90.0 20.0)
  end
  begin
     id 6 
     name rhipjoint
     direction -0.631686 -0.693949 0.345555   
     length 2.2209  
     axis 0 0 0  XYZ 
  end
  begin
     id 7 
     name rfemur
     direction -0.34202 -0.939693 0   
     length 6.49542   
     axis 0 0 -20   XYZ
    dof rx ry rz
    limits (-160.0 20.0)
           (-70.0 70.0)
           (-70.0 60.0)
  end
  begin
     id 8 
     name rtibia
     direction -0.34202 -0.939693 0   
     length 7.21712   
     axis 0 0 -20   XYZ
    dof rx
    limits (-10.0 170.0)
 end
 begin
     id 9 
     name rfoot
     direction -0.0825378 -0.226771 0.970444   
     length 1.89724  
     axis -90 -7.62852e-016 -20   XYZ
    dof rx rz
    limits (-45.0 90.0)
           (-20.0 70.0)
  end
  begin
     id 10 
     name rtoes
     direction -1.53515e-011 -4.22016e-011 1   
     length 0.955868   
     axis -90 -7.62852e-016 -20   XYZ
    dof rx
    limits (-90.0 20.0)
  end
  begin
     id 11 
     name lowerback
     direction -0.0104711 0.984802 -0.173368   
     length 1.84931   
     axis 0 0 0   XYZ
    dof rx ry rz
    limits (-20.0 45.0)
           (-30.0 30.0)
           (-30.0 30.0)
  end
  begin
     id 12 
     name upperback
     direction -0.00286433 0.999996 -0.000382853   
     length 1.85768   
     axis 0 0 0   XYZ
    dof rx ry rz
    limits (-20.0 45.0)
           (-30.0 30.0)
           (-30.0 30.0)
  end
  begin
     id 13 
     name thorax
     direction 0.00167534 0.996793 0.0800069   
     length 1.92   
     axis 0 0 0   XYZ
    dof rx ry rz
    limits (-20.0 45.0)
           (-30.0 30.0)
           (-30.0 30.0)
  end
  begin
     id 14 
     name lowerneck
     direction -0.0672491 0.995415 0.068018   
     length 1.58923   
     axis 0 0 0   XYZ
    dof rx ry rz
    limits (-20.0 45.0)
           (-30.0 30.0)
           (-30.0 30.0)
  end
  begin
     id 15 
     name upperneck
     direction 0.0958019 0.982476 -0.159884   
     length 1.60189   
     axis 0 0 0   XYZ
    dof rx ry rz
    limits (-20.0 45.0)
           (-30.0 30.0)
           (-30.0 30.0)
  end
  begin
     id 16
     name head
     direction 0.032989 0.997338 -0.0650226  
     length 1.61681  
     axis 0 0 0   XYZ
    dof rx ry rz
    limits (-20.0 45.0)
           (-30.0 30.0)
           (-30.0 30.0)
  end
  begin
     id 17 
     name lclavicle
     direction 0.954279 0.298875 -0.00496069  
     length 2.99449  
     axis 0 0 0   XYZ
    dof ry rz
    limits (-20.0 10.0)
           (0.0 20.0)
  end
  begin
     id 18 
     name lhumerus
     direction 1 -4.48985e-011 -4.2057e-027   
     length 4.79185   
     axis 180 -30 -90   XYZ
    dof rx ry rz
    limits (-60.0 90.0)
           (-90.0 90.0)
           (-90.0 90.0)
  end
  begin
     id 19
     name lradius
     direction 1 -4.48945e-011 1.15441e-028   
     length 2.65553   
     axis 180 -30 -90   XYZ
    dof rx
    limits (-10.0 170.0)
  end
  begin
     id 20
     name lwrist
     direction 1 -4.4899e-011 4.8894e-028   
     length 1.32777   
     axis -2.56392e-016 90 90   XYZ
    dof ry
    limits (-180.0 0.0)
 end
  begin
     id 21 
     name lhand
     direction 1 -4.48908e-011 9.7788e-028   
     length 0.743904   
     axis -6.23971e-016 90 90   XYZ
    dof rx rz
    limits (-90.0 90.0)
           (-45.0 45.0)
  end
  begin
     id 22 
     name lfingers
     direction 1 -4.49068e-011 1.95576e-027   
     length 0.599754   
     axis -1.24794e-015 90 90   XYZ
    dof rx
    limits (0.0 90.0)
  end
  begin
     id 23
     name lthumb
     direction 0.707107 -6.34883e-011 0.707107   
     length 0.861131   
     axis -90 45 2.85299e-015   XYZ
    dof rx rz
    limits (-45.0 45.0)
           (-45.0 45.0)
  end
  begin
     id 24 
     name rclavicle
     direction -0.957921 0.286916 0.00811568   
     length 3.06817  
     axis 0 0 0   XYZ 
    dof ry rz
    limits (-10.0 20.0)
           (-20.0 0.0)
  end
  begin
     id 25 
     name rhumerus
     direction -1 -4.48971e-011 -3.07942e-027  
     length 4.77254   
     axis 180 30 90   XYZ
    dof rx ry rz
    limits (-90.0 60.0)
           (-90.0 90.0)
           (-90.0 90.0)
  end
  begin
     id 26 
     name rradius
     direction -1 -4.48957e-011 -9.6815e-028   
     length 2.75995   
     axis 180 30 90   XYZ
    dof rx
    limits (-10.0 170.0)
  end
  begin
     id 27 
     name rwrist
     direction -1 -4.48979e-011 4.8894e-028   
     length 1.37997   
     axis -2.56392e-016 -90 -90   XYZ
    dof ry
    limits (-180.0 0.0)
  end
  begin
     id 28
     name rhand
     direction -1 -4.48906e-011 9.7788e-028   
     length 0.701619   
     axis -6.23971e-016 -90 -90   XYZ
    dof rx rz
    limits (-90.0 90.0)
           (-45.0 45.0)
  end
  begin
     id 29
     name rfingers
     direction -1 -4.49018e-011 1.95576e-027   
     length 0.565663   
     axis -1.24794e-015 -90 -90   XYZ
    dof rx
    limits (0.0 90.0)
  end
  begin
     id 30
     name rthumb
     direction -0.707107 -6.34881e-011 0.707107   
     length 0.812183   
     axis -90 -45 -2.85299e-015   XYZ
    dof rx rz
    limits (-45.0 45.0)
           (-45.0 45.0)
  end
:hierarchy
  begin
    root lhipjoint rhipjoint lowerback
    lhipjoint lfemur
    lfemur ltibia
    ltibia lfoot
    lfoot ltoes
    rhipjoint rfemur
    rfemur rtibia
    rtibia rfoot
    rfoot rtoes
    lowerback upperback
    upperback thorax
    thorax lowerneck lclavicle rclavicle
    lowerneck upperneck
    upperneck head
    lclavicle lhumerus
    lhumerus lradius
    lradius lwrist
    lwrist lhand lthumb
    lhand lfingers
    rclavicle rhumerus
    rhumerus rradius
    rradius rwrist
    rwrist rhand rthumb
    rhand rfingers
  end

#!OML:ASF F:\VICON\USERDATA\INSTALL\rory3\rory3.ASF
:FULLY-SPECIFIED
:DEGREES
1213
root 0.319424 15.234 -1.84571 0.677816 -0.834407 -0.361298
lowerback 17.9244 0.300408 -2.30903
upperback 6.6034 -0.0339816 -0.792425
thorax -2.96371 -0.0336712 0.478955
lowerneck -2.2357 -7.86292 -17.5806
upperneck 17.221 -10.8236 9.53699
head 7.12912 -5.68836 5.14001
rclavicle 1.39149e-015 9.93923e-015
rhumerus 32.5435 5.64779 -55.4334
rradius 134.965
rwrist -16.6735
rhand 28.9171 7.1404
rfingers 7.12502
rthumb 52.7308 -12.5209
lclavicle 1.39149e-015 9.93923e-015
lhumerus -4.84778 -24.0213 73.1851
lradius 122.06
lwrist 0.294799
lhand 4.70356 33.9689
lfingers 7.12502
lthumb 30.0872 61.5404
rfemur -26.1092 11.5348 15.3662
rtibia 47.094
rfoot -16.9771 -12.4271
rtoes -18.9928
lfemur -25.1763 -9.01953 -15.4885
ltibia 44.9933
lfoot -16.1397 6.63859
ltoes -15.5211
1214
root 0.314485 15.2299 -1.84419 0.631753 -0.904171 -0.393444
lowerback 18.0099 0.271188 -2.32972
upperback 6.48684 -0.0824252 -0.825508
thorax -3.1312 -0.0552204 0.465415
lowerneck -2.29561 -7.91453 -17.7209
upperneck 17.1825 -10.7943 9.11297
head 7.11268 -5.70741 5.01819
rclavicle -5.96354e-016 2.78299e-015
rhumerus 33.0889 5.93096 -55.2588
rradius 135.066
rwrist -17.4524
rhand 28.6886 6.43605
rfingers 7.12502
rthumb 52.5242 -13.353
lclavicle -5.96354e-016 2.78299e-015
lhumerus -5.11563 -23.9149 73.1422
lradius 122.108
lwrist 0.322904
lhand 4.71299 34.0205
lfingers 7.12502
lthumb 30.0962 61.5903
rfemur -26.1018 11.5656 15.4369
rtibia 47.1443
rfoot -16.9639 -12.3984
rtoes -18.8041
lfemur -25.13 -8.93454 -15.4405
ltibia 45.0485
lfoot -16.1371 6.61265
ltoes -15.4511
1215
root 0.310202 15.2255 -1.8414 0.592866 -0.950529 -0.39377
lowerback 18.1857 0.241742 -2.35432
upperback 6.27838 -0.136783 -0.861093
thorax -3.44367 -0.0775553 0.452853
lowerneck -2.28168 -7.92801 -17.7777
upperneck 17.06 -10.6929 8.48396
head 7.03117 -5.70002 4.82531
rclavicle 4.57205e-015 2.38542e-015
rhumerus 33.5518 6.54025 -55.0485
rradius 135.041
rwrist -18.1826
rhand 28.5322 6.07985
rfingers 7.12502
rthumb 52.3826 -13.7958
lclavicle 4.57205e-015 2.38542e-015
lhumerus -5.49051 -23.8673 73.1785
lradius 122.164
lwrist 0.40922
lhand 4.85827 34.0919
lfingers 7.12502
lthumb 30.2348 61.6364
rfemur -26.0921 11.5562 15.483
rtibia 47.1887
rfoot -16.9124 -12.491
rtoes -19.5874
lfemur -25.0978 -8.87801 -15.4259
ltibia 45.0939
lfoot -16.1642 6.59274
ltoes -15.6216
1216
root 0.305522 15.2231 -1.83921 0.533488 -1.03481 -0.361261
lowerback 18.3208 0.261755 -2.42608
upperback 6.1428 -0.13142 -0.876123
thorax -3.65859 -0.0722677 0.476521
lowerneck -2.03314 -8.00237 -17.9814
upperneck 16.7072 -10.7062 7.91123
head 6.86332 -5.7521 4.6717
rclavicle 1.19271e-015 -1.19271e-014
rhumerus 34.1253 7.66077 -54.7855
rradius 134.704
rwrist -18.6114
rhand 28.5811 5.93051
rfingers 7.12502
rthumb 52.4268 -13.9181
lclavicle 1.19271e-015 -1.19271e-014
lhumerus -5.66695 -23.8706 73.2947
lradius 122.123
lwrist 0.469626
lhand 4.89137 34.1592
lfingers 7.12502
lthumb 30.2664 61.6979
rfemur -26.0691 11.556 15.501
rtibia 47.244
rfoot -16.8542 -12.5739
rtoes -20.6799
lfemur -25.012 -8.82338 -15.4525
ltibia 45.1043
lfoot -16.2036 6.66535
ltoes -16.036
1217
root 0.300147 15.2222 -1.83791 0.449048 -1.10992 -0.267755
lowerback 18.4197 0.2951 -2.54323
upperback 6.07138 -0.115951 -0.921297
thorax -3.78635 -0.0631224 0.491778
lowerneck -1.88034 -8.13052 -18.2661
upperneck 16.5193 -10.795 7.4293
head 6.78572 -5.83904 4.54996
rclavicle -5.96354e-015 -1.43125e-014
rhumerus 34.7005 8.80558 -54.5092
rradius 134.312
rwrist -19.1611
rhand 29.125 5.68547
rfingers 7.12502
rthumb 52.9186 -13.8583
lclavicle -5.96354e-015 -1.43125e-014
lhumerus -5.76495 -23.9754 73.3625
lradius 122.184
lwrist 0.49998
lhand 4.89105 34.5585
lfingers 7.12502
lthumb 30.266 62.0972
rfemur -26.0131 11.6163 15.4247
rtibia 47.3047
rfoot -17.0077 -12.3787
rtoes -19.6877
lfemur -24.8758 -8.77396 -15.545
ltibia 45.08
lfoot -16.2443 6.68809
ltoes -15.9729
1218
root 0.295365 15.2227 -1.83562 0.385168 -1.19039 -0.175604
lowerback 18.4579 0.286366 -2.67477
upperback 6.00932 -0.157491 -0.994145
thorax -3.87087 -0.0822995 0.497936
lowerneck -1.8962 -8.24187 -18.378
upperneck 16.4208 -10.8182 6.76529
head 6.73738 -5.89318 4.34227
rclavicle 1.98785e-015 1.23246e-014
rhumerus 35.2464 9.87675 -54.0943
rradius 133.867
rwrist -19.4937
rhand 29.3064 5.7955
rfingers 7.12502
rthumb 53.0823 -13.6446
lclavicle 1.98785e-015 1.23246e-014
lhumerus -5.91567 -24.0285 73.37
lradius 122.331
lwrist 0.517837
lhand 5.09281 35.1597
lfingers 7.12502
lthumb 30.4585 62.663
rfemur -25.9667 11.6825 15.3476
rtibia 47.3486
rfoot -17.1138 -12.2312
rtoes -18.8464
lfemur -24.7597 -8.71986 -15.6396
ltibia 45.0546
lfoot -16.2463 6.70612
ltoes -16.0175
1219
root 0.291422 15.2207 -1.83238 0.362532 -1.30503 -0.112779
lowerback 18.3954 0.283535 -2.75674
upperback 5.93779 -0.180688 -1.09216
thorax -3.91372 -0.0924872 0.445429
lowerneck -1.88393 -8.35405 -18.4358
upperneck 16.352 -10.8436 6.03986
head 6.68761 -5.95 4.10818
rclavicle -8.74653e-015 -1.78906e-014
rhumerus 35.6847 10.9747 -53.5001
rradius 133.334
rwrist -19.5002
rhand 29.1218 6.19887
rfingers 7.12502
rthumb 52.9157 -13.3467
lclavicle -8.74653e-015 -1.78906e-014
lhumerus -5.9623 -23.9582 73.2356
lradius 122.292
lwrist 0.500843
lhand 5.15266 35.2834
lfingers 7.12502
lthumb 30.5156 62.7761
rfemur -25.97 11.7019 15.3276
rtibia 47.3669
rfoot -16.9689 -12.3892
rtoes -19.9266
lfemur -24.6896 -8.64235 -15.6998
ltibia 45.0474
lfoot -16.2917 6.71605
ltoes -16.2992
1220
root 0.287336 15.2184 -1.82998 0.33455 -1.41901 -0.178322
lowerback 18.2276 0.303832 -2.62548
upperback 5.96229 -0.129397 -1.18404
thorax -3.80209 -0.0678209 0.263041
lowerneck -1.88431 -8.5242 -18.559
upperneck 16.3105 -10.9628 5.44927
head 6.67114 -6.04741 3.91845
rclavicle -1.78906e-015 -7.15625e-015
rhumerus 36.1163 12.0857 -52.6688
rradius 132.582
rwrist -19.48
rhand 28.591 7.05091
rfingers 7.12502
rthumb 52.4358 -12.7922
lclavicle -1.78906e-015 -7.15625e-015
lhumerus -5.63116 -23.7618 72.942
lradius 122.016
lwrist 0.470198
lhand 5.08896 34.7864
lfingers 7.12502
lthumb 30.4548 62.2904
rfemur -25.9453 11.7391 15.4476
rtibia 47.3516
rfoot -16.8512 -12.4896
rtoes -20.8535
lfemur -24.6255 -8.55607 -15.6147
ltibia 45.0623
lfoot -16.3404 6.72152
ltoes -16.1456
1221
root 0.28256 15.217 -1.82772 0.296241 -1.5331 -0.211872
lowerback 17.9931 0.333924 -2.4507
upperback 6.05475 -0.0577192 -1.35038
thorax -3.58327 -0.0334841 -0.0262391
lowerneck -1.82393 -8.73751 -18.6012
upperneck 16.1433 -11.1713 4.94298
head 6.61208 -6.17445 3.73983
rclavicle 2.38542e-015 -1.74931e-014
rhumerus 36.4533 13.2379 -51.7965
rradius 131.886
rwrist -19.6505
rhand 27.8439 7.06335
rfingers 7.12502
rthumb 51.7585 -13.1847
lclavicle 2.38542e-015 -1.74931e-014
lhumerus -5.20953 -23.7401 72.6203
lradius 121.812
lwrist 0.458704
lhand 5.23952 34.4774
lfingers 7.12502
lthumb 30.5984 61.9547
rfemur -25.9104 11.7882 15.5237
rtibia 47.3397
rfoot -16.7893 -12.4845
rtoes -20.8904
lfemur -24.5561 -8.44244 -15.5645
ltibia 45.0675
lfoot -16.3443 6.7664
ltoes -16.3933
1222
root 0.277312 15.2177 -1.82351 0.255463 -1.67117 -0.27566
lowerback 17.8687 0.372766 -2.2877
upperback 6.01501 0.0151392 -1.52733
thorax -3.56196 0.00433752 -0.320219
lowerneck -1.71234 -8.82342 -18.5158
upperneck 16.1074 -11.2261 4.40909
head 6.55707 -6.2276 3.55259
rclavicle 2.78299e-015 -3.18055e-015
rhumerus 36.4802 14.3613 -51.236
rradius 131.352
rwrist -20.0085
rhand 27.6685 6.16615
rfingers 7.12502
rthumb 51.5991 -14.1746
lclavicle 2.78299e-015 -3.18055e-015
lhumerus -5.11952 -23.9439 72.398
lradius 121.83
lwrist 0.537515
lhand 5.5299 34.7916
lfingers 7.12502
lthumb 30.8753 62.2168
rfemur -25.8738 11.8833 15.6327
rtibia 47.3338
rfoot -16.7868 -12.4786
rtoes -20.7003
lfemur -24.4519 -8.30033 -15.4772
ltibia 45.0466
lfoot -16.3668 6.78317
ltoes -16.6194
1223
root 0.271386 15.2207 -1.81788 0.246157 -1.84771 -0.177679
lowerback 17.8124 0.444718 -2.36179
upperback 5.86124 0.0850565 -1.70506
thorax -3.69635 0.0411584 -0.480888
lowerneck -1.67568 -8.74414 -18.4783
upperneck 16.2997 -11.0515 3.93728
head 6.56821 -6.17699 3.41104
rclavicle -1.21259e-014 -9.54166e-015
rhumerus 36.3248 15.2845 -51.064
rradius 130.783
rwrist -20.5449
rhand 28.0705 5.49898
rfingers 7.12502
rthumb 51.9641 -14.628
lclavicle -1.21259e-014 -9.54166e-015
lhumerus -5.25658 -24.0703 72.3292
lradius 121.836
lwrist 0.602994
lhand 5.76077 35.0656
lfingers 7.12502
lthumb 31.0953 62.4489
rfemur -25.8822 12.0226 15.5496
rtibia 47.3412
rfoot -16.8118 -12.3916
rtoes -20.4738
lfemur -24.338 -8.16397 -15.5692
ltibia 44.9978
lfoot -16.4454 6.82427
ltoes -16.6168
1224
root 0.265466 15.2225 -1.81301 0.234415 -2.01132 -0.0836151
lowerback 17.7375 0.482973 -2.47999
upperback 5.81231 0.109059 -1.83927
thorax -3.70885 0.0535088 -0.560592
lowerneck -2.12135 -8.62286 -18.4992
upperneck 16.7018 -10.7209 3.47849
head 6.71791 -6.05646 3.27343
rclavicle 2.98177e-015 -5.56597e-015
rhumerus 36.3471 15.9242 -51.1066
rradius 130.169
rwrist -21.2481
rhand 28.4145 5.14606
rfingers 7.12502
rthumb 52.276 -14.7942
lclavicle 2.98177e-015 -5.56597e-015
lhumerus -5.23792 -23.9456 72.3253
lradius 121.742
lwrist 0.630215
lhand 5.91448 35.003
lfingers 7.12502
lthumb 31.2418 62.3581
rfemur -25.8884 12.1713 15.475
rtibia 47.3472
rfoot -16.8213 -12.3494
rtoes -20.2752
lfemur -24.2182 -8.05565 -15.6445
ltibia 44.9378
lfoot -16.5244 6.77995
ltoes -16.1317
